<?xml version="1.0" standalone="no"?>
<!DOCTYPE svg PUBLIC "-//W3C//DTD SVG 20010904//EN"
 "http://www.w3.org/TR/2001/REC-SVG-20010904/DTD/svg10.dtd">
<svg version="1.0" xmlns="http://www.w3.org/2000/svg"
 width="200.000000pt" height="200.000000pt" viewBox="0 0 200.000000 200.000000"
 preserveAspectRatio="xMidYMid meet">
<metadata>
Created by potrace 1.16, written by Peter Selinger 2001-2019
</metadata>
<g transform="translate(0.000000,200.000000) scale(0.100000,-0.100000)"
fill="#000000" stroke="none">
<path d="M1310 1489 c-14 -6 -50 -35 -81 -65 -49 -49 -61 -55 -109 -61 -37 -4
-62 -14 -82 -32 l-30 -26 19 -32 c18 -32 18 -32 -8 -60 -15 -15 -25 -32 -23
-38 5 -15 -67 -61 -107 -69 -30 -5 -39 -2 -59 19 -13 14 -29 25 -37 25 -8 0
-13 12 -13 29 0 36 -32 77 -66 85 -24 6 -26 10 -22 51 2 25 0 45 -4 45 -11 0
-89 -94 -108 -130 -133 -260 17 -558 309 -612 129 -24 284 34 376 142 13 14
15 21 6 18 -8 -2 -24 6 -37 19 -26 26 -91 32 -112 11 -9 -9 -12 -8 -12 4 0 9
-15 29 -34 45 -24 21 -37 42 -46 80 -12 51 -11 53 21 98 18 25 37 45 43 45 5
0 22 12 37 26 27 26 28 26 58 8 26 -15 32 -16 47 -3 23 19 44 71 44 112 0 26
10 42 51 82 62 61 79 92 79 143 0 52 -36 66 -100 41z m59 -35 c-13 -15 -37
-35 -54 -45 -16 -11 -26 -19 -21 -19 5 0 1 -9 -10 -21 -14 -16 -15 -22 -5 -28
9 -6 2 -14 -24 -30 -46 -27 -53 -27 -29 0 14 16 16 23 6 26 -6 3 -9 10 -6 15
4 7 2 8 -5 4 -8 -6 -9 -12 -2 -20 17 -20 -94 -139 -121 -130 -14 4 -29 -3 -49
-22 -25 -24 -29 -25 -35 -10 -4 11 2 27 19 44 l26 27 -20 32 -20 31 28 20 c15
10 50 22 76 24 42 5 56 13 112 67 59 57 66 61 111 61 l47 0 -24 -26z"/>
</g>
</svg>
